:SAMPLES-PER-SECOND 30
:FULLY-SPECIFIED
:DEGREES
156
root  -30.444 40.7901 6.61799 -150.986 -79.6337 155.717
RightUpLeg  -6.55254 -12.9522 -16.8837
RightLeg  4.58983 -1.60342 0.874533
RightFoot  0.0772833 -0.987531 9.8598
RightToes  0.000482159 0.542163 -0.142577
Spine  17.4196 0.569995 8.73302
Spine1  12.463 4.5787 -8.51719
HEad  -16.7468 -4.55661 -0.776531
LeftShoulder1  6.36633 -10.2262 -40.1024
LeftArm  -11.4072 12.2418 -33.3633
LeftForeArm  37.0643 -26.5877 -3.73377
LeftHand  -0.25398 0.0180481 5.50724
RightShoulder  5.89467 10.0448 37.4848
RightArm  -12.911 -1.1868 29.4584
RightForeArm  -5.42228 47.6611 12.6852
RightHand  -3.80218 10.1456 -28.2553
LeftUpLeg  -12.4703 1.72001 -2.98618
LeftLeg  0.59666 16.4462 -5.86093
LeftFoot  5.46431 -0.862147 5.60669
LeftToes  1.06244e-005 4.65856e-005 -8.18505e-006
157
root  -30.4401 40.774 6.68882 -149.375 -79.9658 154.125
RightUpLeg  -6.48819 -13.1124 -17.1488
RightLeg  4.67346 -1.89418 0.847469
RightFoot  0.0257363 -0.996096 9.98643
RightToes  0.000482159 0.542163 -0.142577
Spine  17.3671 0.823747 8.74708
Spine1  12.7141 4.64216 -7.75259
HEad  -17.2085 -5.52845 -0.94612
LeftShoulder1  6.49129 -10.4051 -40.3886
LeftArm  -12.851 11.2318 -33.4599
LeftForeArm  39.624 -30.767 -4.53543
LeftHand  -0.25398 0.0180481 5.50724
RightShoulder  5.89042 10.0955 37.2959
RightArm  -11.1291 2.1807 27.1684
RightForeArm  -6.52136 54.668 16.4838
RightHand  -4.6378 12.1322 -30.4883
LeftUpLeg  -12.559 1.53378 -3.25692
LeftLeg  0.597062 16.218 -5.886
LeftFoot  5.52249 -0.899158 5.83355
LeftToes  1.06244e-005 4.65856e-005 -8.18505e-006
158
root  -30.4343 40.7564 6.7628 -146.153 -80.8447 150.859
RightUpLeg  -6.13611 -13.3036 -17.4729
RightLeg  4.79621 -2.73506 0.813374
RightFoot  -0.111364 -1.00376 10.1766
RightToes  0.000482159 0.542163 -0.142577
Spine  17.6344 0.972365 8.31792
Spine1  12.4639 4.2781 -6.22976
HEad  -17.7396 -6.32101 -1.48259
LeftShoulder1  6.60778 -10.5994 -40.5632
LeftArm  -14.2395 11.0019 -33.8278
LeftForeArm  43.0719 -35.9925 -5.61499
LeftHand  -0.25398 0.0180481 5.50724
RightShoulder  5.60273 9.73086 36.3455
RightArm  -13.4059 5.14495 24.1428
RightForeArm  3.03545 65.5368 26.5327
RightHand  -4.7422 12.0434 -31.265
LeftUpLeg  -12.6621 1.22609 -3.61727
LeftLeg  0.692488 15.4888 -5.81274
LeftFoot  5.73239 -0.981977 6.30177
LeftToes  1.06244e-005 4.65856e-005 -8.18505e-006
159
root  -30.4286 40.7345 6.83686 -136.085 -82.7643 140.873
RightUpLeg  -5.41486 -13.6232 -17.8971
RightLeg  4.94727 -4.69155 0.850434
RightFoot  -0.384617 -1.0129 10.5065
RightToes  0.000482159 0.542163 -0.142577
Spine  18.0721 0.799158 7.60652
Spine1  11.4288 3.31231 -4.11354
HEad  -17.8924 -7.17632 -2.18047
LeftShoulder1  6.58275 -10.6405 -40.2668
LeftArm  -14.8657 11.4787 -34.354
LeftForeArm  47.4277 -42.1252 -7.06473
LeftHand  -0.25398 0.0180481 5.50724
RightShoulder  5.05601 8.97464 34.5582
RightArm  -22.6922 7.52543 21.2092
RightForeArm  43.7726 77.4521 64.8101
RightHand  -4.05764 9.87713 -30.5592
LeftUpLeg  -13.0583 0.642008 -4.14116
LeftLeg  0.999675 13.704 -5.59476
LeftFoot  6.12313 -1.10296 6.9281
LeftToes  1.06244e-005 4.65856e-005 -8.18505e-006
160
root  -30.432 40.6954 6.91121 -105.157 -84.9374 110.32
RightUpLeg  -4.42054 -14.2525 -18.5042
RightLeg  5.27374 -7.82009 1.09514
RightFoot  -0.882975 -1.00679 10.9045
RightToes  0.000482159 0.542163 -0.142577
Spine  18.2246 0.366938 6.99291
Spine1  9.81568 2.00713 -1.77171
HEad  -17.5483 -8.51786 -2.79139
LeftShoulder1  6.38228 -10.4865 -39.3939
LeftArm  -14.5552 12.0033 -35.0417
LeftForeArm  52.0968 -48.223 -8.79318
LeftHand  -0.25398 0.0180481 5.50724
RightShoulder  4.15355 7.60049 31.418
RightArm  -37.9589 10.5987 19.1195
RightForeArm  115.201 74.4259 136.422
RightHand  -3.47187 7.96928 -29.9646
LeftUpLeg  -13.8583 -0.242454 -4.86887
LeftLeg  1.48426 10.655 -5.35407
LeftFoot  6.60647 -1.22668 7.50121
LeftToes  1.06244e-005 4.65856e-005 -8.18505e-006
161
root  -30.4677 40.641 6.98589 -55.7791 -84.6229 61.5016
RightUpLeg  -3.45563 -15.1082 -19.25
RightLeg  5.86847 -11.1259 1.40526
RightFoot  -1.5498 -0.978527 11.266
RightToes  0.000482159 0.542163 -0.142577
Spine  17.6928 0.031386 7.19495
Spine1  8.41884 1.23633 -0.470507
HEad  -16.7998 -10.7853 -3.27397
LeftShoulder1  6.22576 -10.4525 -38.4337
LeftArm  -13.7701 11.9152 -35.4794
LeftForeArm  55.6074 -53.2718 -10.6091
LeftHand  -0.25398 0.0180481 5.50724
RightShoulder  3.05702 5.62397 27.4499
RightArm  -56.8906 15.7394 17.7207
RightForeArm  130.504 65.5188 154.52
RightHand  -4.01646 8.82969 -32.2571
LeftUpLeg  -14.6095 -1.15209 -5.7027
LeftLeg  1.72137 7.19087 -5.32626
LeftFoot  7.07494 -1.30469 7.76965
LeftToes  1.06244e-005 4.65856e-005 -8.18505e-006
162
root  -30.5456 40.5977 7.05703 -35.951 -82.5956 42.0654
RightUpLeg  -3.02698 -15.8024 -19.831
RightLeg  6.73469 -12.9722 1.27138
RightFoot  -2.13408 -0.946459 11.5353
RightToes  0.000482159 0.542163 -0.142577
Spine  16.6904 0.174917 8.81233
Spine1  8.00272 1.9275 -1.93533
HEad  -15.2883 -13.4312 -3.41944
LeftShoulder1  6.31502 -10.7682 -38.0859
LeftArm  -13.06 10.9965 -34.6776
LeftForeArm  56.8435 -56.9974 -12.3794
LeftHand  -0.25398 0.0180481 5.50724
RightShoulder  2.28594 4.03885 24.1836
RightArm  -73.5678 22.1108 16.4518
RightForeArm  134.151 60.6236 159.264
RightHand  -6.00381 13.0407 -36.9344
LeftUpLeg  -14.7 -1.56255 -6.34744
LeftLeg  1.35543 4.90202 -5.62051
LeftFoot  7.39071 -1.31088 7.66199
LeftToes  1.06244e-005 4.65856e-005 -8.18505e-006
163
root  -30.64 40.5799 7.12929 -40.5248 -82.5697 46.4931
RightUpLeg  -3.46802 -16.002 -19.9752
RightLeg  7.82702 -12.2519 0.403775
RightFoot  -2.4416 -0.929671 11.6928
RightToes  0.000482159 0.542163 -0.142577
Spine  16.191 0.852996 11.6117
Spine1  8.38808 4.24973 -6.57279
HEad  -12.9568 -15.9701 -3.34053
LeftShoulder1  6.46358 -11.054 -38.2366
LeftArm  -12.9592 9.66079 -32.4582
LeftForeArm  56.5491 -59.6519 -13.9919
LeftHand  -0.25398 0.0180481 5.50724
RightShoulder  2.03422 3.79822 21.5841
RightArm  -77.2734 28.0233 15.3762
RightForeArm  136.642 60.8842 159.554
RightHand  -8.73638 18.7731 -40.6568
LeftUpLeg  -14.0197 -1.28689 -6.57527
LeftLeg  0.731628 5.09323 -6.03381
LeftFoot  7.29444 -1.25339 7.35589
LeftToes  1.06244e-005 4.65856e-005 -8.18505e-006
164
root  -30.7243 40.5665 7.21771 -65.923 -83.8906 71.0893
RightUpLeg  -4.43913 -15.4893 -19.9468
RightLeg  8.89489 -9.4364 -0.658516
RightFoot  -2.55411 -0.924612 11.7675
RightToes  0.000482159 0.542163 -0.142577
Spine  16.9441 1.73487 14.5091
Spine1  8.56675 7.45029 -13.0613
HEad  -10.2698 -17.2588 -3.87227
LeftShoulder1  6.28334 -10.7843 -37.8218
LeftArm  -14.0382 8.81696 -30.2205
LeftForeArm  56.3594 -61.3452 -15.1785
LeftHand  -0.25398 0.0180481 5.50724
RightShoulder  1.87493 4.31485 17.3934
RightArm  -65.5298 33.4185 15.776
RightForeArm  121.951 70.9628 142.234
RightHand  -10.2122 21.7535 -42.1546
LeftUpLeg  -12.9518 -0.674078 -6.54076
LeftLeg  0.661655 7.79979 -6.28237
LeftFoot  6.55826 -1.15912 7.09603
LeftToes  1.06244e-005 4.65856e-005 -8.18505e-006
165
root  -30.8174 40.5338 7.31753 -105.546 -83.5098 109.593
RightUpLeg  -5.29481 -14.6268 -20.3255
RightLeg  9.68236 -5.92876 -1.11545
RightFoot  -2.74746 -0.91316 11.8635
RightToes  0.000482159 0.542163 -0.142577
Spine  18.3901 2.53517 16.6637
Spine1  8.02813 10.5541 -19.8223
HEad  -8.23765 -17.2476 -5.49694
LeftShoulder1  5.72462 -10.0254 -36.2053
LeftArm  -16.4012 9.12751 -29.2414
LeftForeArm  56.8231 -62.1917 -15.7791
LeftHand  -0.25398 0.0180481 5.50724
RightShoulder  1.40915 4.49283 10.3501
RightArm  -47.1807 39.391 17.0183
RightForeArm  30.8457 75.2442 54.4732
RightHand  -7.4973 16.7965 -37.8917
LeftUpLeg  -11.9379 -0.0650338 -6.59155
LeftLeg  1.36685 11.5241 -6.36315
LeftFoot  5.39708 -1.06563 7.01144
LeftToes  1.06244e-005 4.65856e-005 -8.18505e-006
166
root  -30.9568 40.5043 7.38163 -125.702 -81.5306 128.925
RightUpLeg  -5.52614 -14.4133 -21.0861
RightLeg  9.87392 -3.01582 -0.906464
RightFoot  -3.06662 -0.896399 12.061
RightToes  0.000482159 0.542163 -0.142577
Spine  19.5158 3.24617 18.1918
Spine1  7.14266 13.064 -25.6771
HEad  -7.36177 -16.9116 -7.73274
LeftShoulder1  5.13915 -9.28053 -34.1395
LeftArm  -19.2727 10.239 -29.0994
LeftForeArm  57.8057 -62.7289 -16.1133
LeftHand  -0.25398 0.0180481 5.50724
RightShoulder  0.859838 4.37356 2.87995
RightArm  -25.3061 44.0131 15.3549
RightForeArm  -14.7768 55.9603 16.0346
RightHand  -4.43134 11.0058 -31.3429
LeftUpLeg  -11.1884 0.33529 -6.80877
LeftLeg  2.07022 14.1524 -6.45295
LeftFoot  4.49373 -1.01329 7.07989
LeftToes  1.06244e-005 4.65856e-005 -8.18505e-006
167
root  -31.1315 40.5077 7.3386 -123.617 -81.33 126.75
RightUpLeg  -4.8627 -15.0721 -21.6468
RightLeg  9.54976 -2.34424 -0.555431
RightFoot  -3.47971 -0.870224 12.274
RightToes  0.000482159 0.542163 -0.142577
Spine  20.0423 3.82838 18.949
Spine1  6.198 14.5297 -29.2424
HEad  -6.97505 -16.878 -9.96934
LeftShoulder1  4.78237 -8.79977 -32.8187
LeftArm  -21.578 11.4888 -28.7914
LeftForeArm  59.7233 -63.6005 -16.6554
LeftHand  -0.25398 0.0180481 5.50724
RightShoulder  0.617983 4.40407 -0.695728
RightArm  -10.7506 40.9746 10.8169
RightForeArm  -15.6269 56.4971 18.6048
RightHand  -4.64727 11.7567 -31.1514
LeftUpLeg  -10.9841 0.318942 -7.01229
LeftLeg  2.40784 14.0192 -6.4951
LeftFoot  4.25419 -1.01222 7.19183
LeftToes  1.06244e-005 4.65856e-005 -8.18505e-006
